<svg width="140" height="120" viewBox="0 0 24 20" xmlns="http://www.w3.org/2000/svg">
  <!-- Left page -->
  <path d="M2 3.5C2 2.67 2.67 2 3.5 2H11V18H3.5C2.67 18 2 17.33 2 16.5V3.5Z" fill="#2563EB"></path>

  <!-- Right page -->
  <path d="M22 3.5C22 2.67 21.33 2 20.5 2H13V18H20.5C21.33 18 22 17.33 22 16.5V3.5Z" fill="#2563EB"></path>

  <!-- Inner left page -->
  <rect x="4" y="4" width="6" height="12" rx="0.8" fill="#DBEAFE"></rect>

  <!-- Inner right page -->
  <rect x="14" y="4" width="6" height="12" rx="0.8" fill="#DBEAFE"></rect>

  <!-- Left page lines -->
  <line x1="5" y1="7" x2="9" y2="7" stroke="#2563EB" stroke-width="0.8"></line>
  <line x1="5" y1="9" x2="9" y2="9" stroke="#2563EB" stroke-width="0.8"></line>
  <line x1="5" y1="11" x2="9" y2="11" stroke="#2563EB" stroke-width="0.8"></line>

  <!-- Right page lines -->
  <line x1="15" y1="7" x2="19" y2="7" stroke="#2563EB" stroke-width="0.8"></line>
  <line x1="15" y1="9" x2="19" y2="9" stroke="#2563EB" stroke-width="0.8"></line>
  <line x1="15" y1="11" x2="19" y2="11" stroke="#2563EB" stroke-width="0.8"></line>

  <!-- Center spine -->
  <line x1="12" y1="2" x2="12" y2="18" stroke="#1E40AF" stroke-width="1.2"></line>
</svg>
